<svg width="16" height="16" viewBox="0 0 16 16" fill="none" xmlns="http://www.w3.org/2000/svg">
<path fill-rule="evenodd" clip-rule="evenodd" d="M6.46599 0H9.70195V1.25H8.70627V2.27802C12.1952 2.59374 14.9293 5.53869 14.9293 9.125C14.9293 10.9677 14.2075 12.6412 13.0323 13.8756L14.0579 16H12.7303L12.0951 14.6967C10.9679 15.5166 9.58219 16 8.08406 16C6.5858 16 5.19997 15.5166 4.07277 14.6965L3.43743 16H2.10986L3.13557 13.8753C1.96052 12.6409 1.23877 10.9676 1.23877 9.125C1.23877 5.53875 3.97279 2.59385 7.46167 2.27804V1.25H6.46599V0ZM15.9998 4.15701C14.9552 2.47804 13.4082 1.1743 11.5805 0.43265L11.091 1.64958C12.6628 2.2874 13.9932 3.40861 14.8916 4.85253L15.9998 4.15701ZM4.28708 0.560511C2.48625 1.36577 0.985478 2.72294 -0.000147268 4.4375L1.1316 5.09375C1.97924 3.61923 3.2699 2.45206 4.81861 1.75954L4.28708 0.560511ZM8.08406 14.7103C5.01274 14.7103 2.52294 12.2097 2.52294 9.125C2.52294 6.04035 5.01274 3.53975 8.08406 3.53975C11.1554 3.53975 13.6452 6.04035 13.6452 9.125C13.6452 12.2097 11.1554 14.7103 8.08406 14.7103ZM7.2002 4.80003H8.8002V9.3641L10.9263 10.7897L10.1671 11.9326L8.03038 10.4998C7.95804 10.4513 7.89402 10.395 7.8387 10.3327C7.46508 10.1878 7.2002 9.82484 7.2002 9.40003V4.80003Z" fill="#AAAAAA"/>
</svg>
