<svg width="15" height="16" viewBox="0 0 15 16" fill="none" xmlns="http://www.w3.org/2000/svg">
<path d="M6.66057 7.69028L0.140458 14.5438C-0.0406817 14.7342 -0.0406817 15.0427 0.140458 15.2331C0.230913 15.3284 0.349678 15.3758 0.468213 15.3758C0.586978 15.3758 0.705513 15.3284 0.795968 15.2331L7.3651 8.32802L13.9342 15.2331C14.0249 15.3284 14.1435 15.3758 14.262 15.3758C14.3805 15.3758 14.4993 15.3284 14.5898 15.2331C14.7709 15.0427 14.7709 14.7342 14.5898 14.5438L8.06987 7.69028L14.5941 0.831895C14.7753 0.641492 14.7753 0.333024 14.5941 0.142621C14.413 -0.0475403 14.1195 -0.0475403 13.9386 0.142621L7.36533 7.05254L0.791365 0.142863C0.610225 -0.0472984 0.316995 -0.0472984 0.135855 0.142863C-0.0452849 0.333266 -0.0452849 0.641734 0.135855 0.832137L6.66057 7.69028Z" fill="#C4C4C4"/>
</svg>
