<svg width="949" height="179" viewBox="0 0 949 179" fill="none" xmlns="http://www.w3.org/2000/svg">
<g clip-path="url(#clip0_16_124)">
<path d="M47 178.8C43.8 178 40.7 177.1 38.1 175.1C33.7 171.9 31.1 167.6 30.1 162C29.1 162 28.1 162 27 162C22.5 162 17.9 162.1 13.4 162.1C11.5 162.1 10.4 161 10.4 159.1C10.4 156.4 10.4 153.7 10.4 150.8C9.49999 150.8 8.59999 150.8 7.79999 150.8C5.89999 150.7 4.79999 149.7 4.79999 147.9C4.79999 135.8 4.79999 123.8 4.79999 111.7C4.79999 109.9 5.89999 108.9 7.79999 108.8C10.5 108.8 13.1 108.8 15.9 108.8C15.9 90.9 15.9 73.2 15.9 55.2C14.6 56.1 13.6 57.1 12.3 57.7C11.4 58.1 9.89999 58.5 9.09999 58.1C8.29999 57.7 7.59999 56.3 7.59999 55.3C7.39999 51.9 7.59999 48.4 7.49999 45C7.49999 43.6 7.99999 42.7 9.09999 41.9C28.1 28.4 47.2 14.8 66.2 1.19998C68.8 -0.600024 69.2 -0.600024 71.8 1.19998C90.9 14.8 109.9 28.4 129 42C130.1 42.8 130.6 43.7 130.6 45.1C130.5 48.5 130.7 52 130.5 55.4C130.4 56.4 129.8 57.8 129 58.2C128.2 58.6 126.8 58.3 125.8 57.8C124.6 57.2 123.5 56.3 122.2 55.3C122.2 62.1 122.2 68.6 122.2 75.4C122.8 75.4 123.4 75.4 124 75.4C136.1 75.4 148.2 75.4 160.3 75.4C162.3 75.4 163.3 76.1 164.2 77.9C169.5 89.6 175 101.2 180.4 112.9C180.7 113.6 180.8 114.5 180.8 115.2C180.8 124.5 180.8 133.8 180.8 143.2C180.8 143.8 180.8 144.5 180.8 144.7C181.9 145.6 182.7 146.3 183.6 147C183.6 151.4 183.6 155.9 183.6 160.3C182.7 161.7 181.4 162.2 179.7 162.1C177.4 162 175.1 162.1 172.7 162.1C168.8 162.1 164.9 162.1 161.1 162.1C159 169.6 156.3 173.6 151 176.4C148.8 177.5 146.4 178.1 144 178.9C142.4 178.9 140.7 178.9 139.1 178.9C135.4 178.1 132 176.8 129.1 174.4C125.3 171.2 123.1 167.1 122.2 162.3C104.3 162.3 86.5 162.3 68.7 162.3C67.7 167.7 65.1 172 60.7 175.3C58 177.3 54.9 178.2 51.8 179C50.3 178.8 48.6 178.8 47 178.8ZM161.1 156.3C166.8 156.3 172.3 156.3 177.9 156.3C177.9 154.4 177.9 152.7 177.9 150.8C176 150.8 174.3 150.9 172.6 150.8C170.9 150.7 169.8 149.5 169.8 148.1C169.8 146.6 170.9 145.4 172.6 145.3C173.5 145.2 174.3 145.3 175.2 145.3C175.2 142.4 175.2 139.7 175.2 136.9C173.6 136.5 172.6 135.7 172.5 134.1C172.5 132.4 173.7 131.6 175.1 131.2C175.1 126.5 175.1 121.9 175.1 117.4C174.9 117.4 174.7 117.3 174.6 117.3C164.9 117.3 155.3 117.3 145.6 117.3C136.3 117.3 130.5 111.4 130.5 102.1C130.5 95.7 130.5 89.3 130.5 82.9C130.5 82.3 130.5 81.7 130.5 81.1C127.6 81.1 124.9 81.1 122.1 81.1C122.1 81.8 122.1 82.4 122.1 83.1C122.1 96.8 122.1 117.9 122.1 118.4C122 120.2 120.9 121.4 119.3 121.4C117.7 121.4 116.6 120.2 116.5 118.4C116.4 116.2 116.5 116.2 116.5 114.7C81 114.7 45.7 114.7 10.4 114.7C10.4 124.9 10.4 135.1 10.4 145.4C14 145.4 17.5 145.4 21 145.4C23 145.4 24.3 146.6 24.3 148.3C24.3 149.9 23 151 21.1 151C19.4 151 17.8 151 16.1 151C16.1 153 16.1 154.7 16.1 156.5C20.9 156.5 25.5 156.5 30.1 156.5C32.2 145.7 40.4 140.5 48 139.9C52.3 139.6 56.3 140.6 60 142.9C65 146.1 67.9 150.8 69 156.5C86.9 156.5 104.7 156.5 122.4 156.5C125.3 145.6 132.7 139.6 142.5 139.8C151.6 139.9 159 146.4 161.1 156.3ZM116.5 108.8C116.5 108.4 116.6 108.1 116.6 107.8C116.6 89.3 116.6 70.9 116.5 52.4C116.5 51.7 115.8 50.7 115.2 50.2C104.2 42.3 93.2 34.5 82.2 26.6C77.8 23.5 73.4 20.3 69 17.2C68.7 17.4 68.5 17.5 68.3 17.6C53.1 28.6 37.8 39.6 22.4 50.5C21.5 51.2 21.4 51.9 21.4 52.9C21.4 71 21.4 89 21.4 107.1C21.4 107.7 21.4 108.2 21.4 108.8C33.6 108.8 45.6 108.8 57.8 108.8C57.8 108.1 57.8 107.4 57.8 106.8C57.8 97.5 57.8 88.2 57.8 78.8C57.8 76.3 58.7 75.3 61.2 75.3C66.3 75.3 71.5 75.3 76.6 75.3C79.2 75.3 80.1 76.2 80.1 78.9C80.1 88.2 80.1 97.5 80.1 106.9C80.1 107.5 80.1 108.1 80.1 108.9C92.3 108.8 104.3 108.8 116.5 108.8ZM136.1 80.9C136.1 88.2 136.1 95.2 136.1 102.3C136.1 108.3 139.5 111.7 145.5 111.7C154.2 111.7 163 111.7 171.7 111.7C172.3 111.7 172.8 111.7 173.5 111.6C173.2 110.8 172.9 110.2 172.6 109.6C168.8 101.4 164.8 93.3 161.4 85C160 81.8 158.4 80.7 154.9 80.9C148.8 81.2 142.6 80.9 136.1 80.9ZM13.3 50.1C13.9 49.7 14.4 49.4 14.9 49C32 36.8 49.1 24.6 66.2 12.4C68.8 10.5 69.3 10.5 71.9 12.4C87.6 23.6 103.2 34.8 118.9 46C120.8 47.4 122.7 48.7 124.7 50.1C125.2 47.5 124.8 45.7 122.5 44.1C109.9 35.4 97.5 26.4 85 17.4C79.7 13.7 74.4 9.89998 69 6.09998C68.4 6.49998 68 6.79998 67.5 7.09998C50.2 19.5 32.9 31.9 15.5 44.2C13.2 45.8 12.7 47.5 13.3 50.1ZM63.4 159.3C63.5 151.8 57.2 145.4 49.6 145.2C42 145 35.5 151.4 35.5 159.1C35.4 166.6 41.7 173 49.3 173.2C56.9 173.3 63.3 167 63.4 159.3ZM127.8 159.2C127.8 166.8 134.2 173.3 141.8 173.2C149.4 173.2 155.7 166.9 155.7 159.3C155.7 151.7 149.3 145.2 141.7 145.3C134.1 145.3 127.8 151.5 127.8 159.2ZM63.5 81C63.5 90.4 63.5 99.6 63.5 108.7C67.3 108.7 70.9 108.7 74.5 108.7C74.5 99.4 74.5 90.2 74.5 81C70.8 81 67.3 81 63.5 81Z" fill="white"/>
<path d="M39.5 86.5C36.5 86.5 33.6 86.5 30.6 86.5C28.1 86.5 27.1 85.5 27.1 83C27.1 77 27.1 70.9 27.1 64.9C27.1 62.4 28.1 61.4 30.6 61.4C36.6 61.4 42.7 61.4 48.7 61.4C51.2 61.4 52.2 62.4 52.2 64.9C52.2 70.9 52.2 77 52.2 83C52.2 85.5 51.2 86.5 48.7 86.5C45.6 86.5 42.6 86.5 39.5 86.5ZM46.6 67.1C41.9 67.1 37.3 67.1 32.8 67.1C32.8 71.8 32.8 76.3 32.8 80.9C37.5 80.9 42 80.9 46.6 80.9C46.6 76.2 46.6 71.7 46.6 67.1Z" fill="white"/>
<path d="M111 74.1C111 77.1 111 80 111 83C111 85.5 110 86.5 107.5 86.5C101.5 86.5 95.4 86.5 89.4 86.5C86.9 86.5 85.9 85.5 85.9 83C85.9 77 85.9 70.9 85.9 64.9C85.9 62.4 86.9 61.4 89.4 61.4C95.4 61.4 101.5 61.4 107.5 61.4C110 61.4 111 62.4 111 64.9C111 67.9 111 71 111 74.1ZM91.5 67C91.5 71.7 91.5 76.3 91.5 80.8C96.2 80.8 100.7 80.8 105.3 80.8C105.3 76.1 105.3 71.6 105.3 67C100.7 67 96.1 67 91.5 67Z" fill="white"/>
<path d="M80.2 47.4C80.1 53.5 74.9 58.6 68.9 58.5C62.8 58.4 57.8 53.3 57.9 47.2C58 41.1 63.2 36 69.2 36.1C75.3 36.3 80.2 41.4 80.2 47.4ZM74.6 47.3C74.6 44.3 72.1 41.8 69 41.8C66 41.8 63.4 44.3 63.4 47.3C63.4 50.4 66 53 69.1 52.9C72.1 52.9 74.6 50.4 74.6 47.3Z" fill="white"/>
<path d="M49.4 150.8C54 150.8 57.8 154.5 57.8 159.1C57.9 163.7 54 167.6 49.4 167.6C44.8 167.6 41.1 163.8 41.1 159.2C41.1 154.7 44.8 150.9 49.4 150.8ZM49.5 156.4C48 156.4 46.7 157.7 46.7 159.1C46.7 160.5 47.9 161.8 49.3 161.9C50.8 162 52.2 160.7 52.2 159.2C52.3 157.8 51 156.5 49.5 156.4Z" fill="white"/>
<path d="M133.3 159.1C133.4 154.5 137.2 150.8 141.7 150.8C146.3 150.8 150.1 154.7 150 159.4C149.9 164 146 167.7 141.5 167.6C137 167.5 133.3 163.7 133.3 159.1ZM144.5 159.3C144.6 157.8 143.3 156.5 141.8 156.4C140.4 156.4 139.1 157.6 139 159C138.9 160.5 140.2 161.9 141.6 161.9C143.1 162 144.4 160.8 144.5 159.3Z" fill="white"/>
<path d="M238.7 126C238.7 129.2 238.1 132 236.9 134.3C235.7 136.7 234.1 138.6 232 140.1C229.9 141.6 227.4 142.8 224.4 143.5C221.5 144.2 218.3 144.6 214.8 144.6C211.7 144.6 208.8 144.4 205.9 144.1C203 143.7 200.2 143.1 197.4 142.3V131.4C198.8 131.9 200.2 132.3 201.7 132.7C203.2 133.1 204.7 133.5 206.2 133.8C207.7 134.1 209.2 134.4 210.7 134.5C212.2 134.7 213.6 134.8 215 134.8C217.1 134.8 218.9 134.6 220.3 134.3C221.8 133.9 223 133.4 223.9 132.8C224.8 132.2 225.5 131.4 225.9 130.6C226.3 129.7 226.5 128.8 226.5 127.7C226.5 126.3 226.1 125.1 225.3 124.1C224.5 123.1 223.4 122.3 222.1 121.5C220.8 120.8 219.2 120.1 217.5 119.5C215.8 118.9 214 118.3 212.3 117.6C210.5 116.9 208.8 116.1 207.1 115.3C205.4 114.4 203.9 113.4 202.5 112.1C201.2 110.8 200.1 109.3 199.3 107.5C198.5 105.7 198.1 103.6 198.1 101.1C198.1 98.8 198.5 96.6 199.4 94.6C200.2 92.5 201.5 90.7 203.3 89.2C205.1 87.7 207.4 86.4 210.2 85.5C213 84.6 216.4 84.1 220.4 84.1C221.6 84.1 222.8 84.2 224 84.3C225.2 84.4 226.5 84.5 227.8 84.7C229 84.9 230.2 85.1 231.4 85.3C232.5 85.5 233.6 85.8 234.6 86V96.1C233.6 95.7 232.6 95.4 231.5 95.1C230.4 94.8 229.2 94.5 228 94.3C226.8 94.1 225.6 93.9 224.4 93.8C223.2 93.7 222 93.6 220.9 93.6C219 93.6 217.3 93.8 216 94.1C214.7 94.4 213.6 94.8 212.7 95.4C211.8 96 211.2 96.6 210.8 97.4C210.4 98.2 210.2 99.1 210.2 100.1C210.2 101.3 210.6 102.4 211.4 103.3C212.2 104.2 213.3 105 214.7 105.7C216.1 106.4 217.6 107.1 219.3 107.7C221 108.3 222.8 109 224.6 109.7C226.4 110.4 228.2 111.2 229.9 112.1C231.6 113 233.2 114.1 234.5 115.4C235.9 116.7 236.9 118.2 237.8 119.9C238.3 121.6 238.7 123.7 238.7 126Z" fill="white"/>
<path d="M290.1 103.8C290.1 106.8 289.6 109.7 288.6 112.2C287.6 114.8 286.1 117 284.1 118.9C282.1 120.8 279.6 122.2 276.6 123.3C273.6 124.3 270.2 124.9 266.2 124.9H260.6V143.7H249.5V85.2H266.6C270.4 85.2 273.7 85.6 276.6 86.4C279.5 87.2 282 88.4 283.9 90C285.8 91.6 287.4 93.5 288.4 95.8C289.6 98.2 290.1 100.9 290.1 103.8ZM278.6 104.6C278.6 103 278.4 101.6 277.9 100.4C277.4 99.1 276.7 98.1 275.7 97.2C274.7 96.3 273.4 95.6 271.9 95.1C270.4 94.6 268.6 94.4 266.5 94.4H260.7V115.8H266.8C268.7 115.8 270.4 115.5 271.9 115C273.4 114.5 274.6 113.7 275.6 112.7C276.6 111.7 277.4 110.5 277.9 109.2C278.3 107.8 278.6 106.3 278.6 104.6Z" fill="white"/>
<path d="M329.1 143.7L320.9 124.9C320.1 123.1 319 121.8 317.7 120.8C316.3 119.9 314.7 119.4 312.8 119.4H310.7V143.6H299.7V85.2H316.8C320 85.2 322.9 85.5 325.6 86C328.2 86.6 330.5 87.5 332.3 88.8C334.1 90.1 335.6 91.8 336.6 93.8C337.6 95.9 338.1 98.4 338.1 101.4C338.1 103.5 337.8 105.5 337.2 107.1C336.6 108.8 335.7 110.2 334.6 111.4C333.5 112.6 332.1 113.6 330.6 114.3C329 115 327.3 115.6 325.5 115.9C326.9 116.2 328.2 117 329.4 118.3C330.6 119.6 331.8 121.5 333 124.1L342.4 143.7H329.1ZM326.4 102.5C326.4 99.6 325.5 97.6 323.7 96.3C321.9 95 319.1 94.4 315.5 94.4H310.7V110.9H315.2C316.9 110.9 318.4 110.7 319.8 110.4C321.2 110 322.4 109.5 323.4 108.8C324.4 108.1 325.1 107.2 325.7 106.1C326.1 105 326.4 103.8 326.4 102.5Z" fill="white"/>
<path d="M351 94.2V85.2H388V94.2H375.1V134.6H388V143.7H351V134.6H363.9V94.2H351Z" fill="white"/>
<path d="M427.8 143.7L412.1 108.8L408.9 101.3V125.6V143.8H398.9V85.2H412.4L428.4 120.3L431.2 127.1V101.3V85.2H441.2V143.7H427.8Z" fill="white"/>
<path d="M475.9 94.4V143.7H464.6V94.4H448.6V85.2H491.9V94.4H475.9Z" fill="white"/>
<path d="M504.3 143.7V85.2H515.5V134.3H540.2V143.7H504.3V143.7Z" fill="white"/>
<path d="M552.6 94.2V85.2H589.6V94.2H576.7V134.6H589.6V143.7H552.6V134.6H565.5V94.2H552.6Z" fill="white"/>
<path d="M629.4 143.7L613.7 108.8L610.5 101.3V125.6V143.8H600.5V85.2H614L630 120.3L632.8 127.1V101.3V85.2H642.8V143.7H629.4Z" fill="white"/>
<path d="M654.9 143.7V85.2H690.1V94.5H666.1V109H689V118.1H666.1V134.3H690.1V143.6H654.9V143.7Z" fill="white"/>
<path d="M727.9 94.4V143.7H716.6V94.4H700.6V85.2H743.9V94.4H727.9Z" fill="white"/>
<path d="M782.7 143.7L774.5 124.9C773.7 123.1 772.6 121.8 771.3 120.8C769.9 119.9 768.3 119.4 766.4 119.4H764.3V143.6H753.3V85.2H770.4C773.6 85.2 776.5 85.5 779.2 86C781.8 86.6 784.1 87.5 785.9 88.8C787.7 90.1 789.2 91.8 790.2 93.8C791.2 95.9 791.7 98.4 791.7 101.4C791.7 103.5 791.4 105.5 790.8 107.1C790.2 108.8 789.3 110.2 788.2 111.4C787.1 112.6 785.7 113.6 784.2 114.3C782.6 115 780.9 115.6 779.1 115.9C780.5 116.2 781.8 117 783 118.3C784.2 119.6 785.4 121.5 786.6 124.1L796 143.7H782.7ZM780 102.5C780 99.6 779.1 97.6 777.3 96.3C775.5 95 772.7 94.4 769.1 94.4H764.3V110.9H768.8C770.5 110.9 772 110.7 773.4 110.4C774.8 110 776 109.5 777 108.8C778 108.1 778.7 107.2 779.3 106.1C779.7 105 780 103.8 780 102.5Z" fill="white"/>
<path d="M835.9 143.7L832.7 132.2H812.3L809 143.7H798L815.3 85.2H830.7L848 143.7H835.9ZM822.6 96L814.9 123.2H830.2L822.6 96Z" fill="white"/>
<path d="M881.4 143.7L865.7 108.8L862.5 101.3V125.6V143.8H852.5V85.2H866L882 120.3L884.8 127.1V101.3V85.2H894.8V143.7H881.4Z" fill="white"/>
<path d="M944.3 126C944.3 129.2 943.7 132 942.5 134.3C941.3 136.7 939.7 138.6 937.6 140.1C935.5 141.6 933 142.8 930 143.5C927.1 144.2 923.9 144.6 920.4 144.6C917.3 144.6 914.4 144.4 911.5 144.1C908.6 143.7 905.8 143.1 903 142.3V131.4C904.4 131.9 905.8 132.3 907.3 132.7C908.8 133.1 910.3 133.5 911.8 133.8C913.3 134.1 914.8 134.4 916.3 134.5C917.8 134.7 919.2 134.8 920.6 134.8C922.7 134.8 924.5 134.6 925.9 134.3C927.4 133.9 928.6 133.4 929.5 132.8C930.4 132.2 931.1 131.4 931.5 130.6C931.9 129.7 932.1 128.8 932.1 127.7C932.1 126.3 931.7 125.1 930.9 124.1C930.1 123.1 929 122.3 927.7 121.5C926.4 120.8 924.8 120.1 923.1 119.5C921.4 118.9 919.6 118.3 917.9 117.6C916.1 116.9 914.4 116.1 912.7 115.3C911 114.4 909.5 113.4 908.1 112.1C906.8 110.8 905.7 109.3 904.9 107.5C904.1 105.7 903.7 103.6 903.7 101.1C903.7 98.8 904.1 96.6 905 94.6C905.8 92.5 907.1 90.7 908.9 89.2C910.7 87.7 913 86.4 915.8 85.5C918.6 84.6 922 84.1 926 84.1C927.2 84.1 928.4 84.2 929.6 84.3C930.8 84.4 932.1 84.5 933.4 84.7C934.6 84.9 935.8 85.1 937 85.3C938.1 85.5 939.2 85.8 940.2 86V96.1C939.2 95.7 938.2 95.4 937.1 95.1C936 94.8 934.8 94.5 933.6 94.3C932.4 94.1 931.2 93.9 930 93.8C928.8 93.7 927.6 93.6 926.5 93.6C924.6 93.6 922.9 93.8 921.6 94.1C920.3 94.4 919.2 94.8 918.3 95.4C917.4 96 916.8 96.6 916.4 97.4C916 98.2 915.8 99.1 915.8 100.1C915.8 101.3 916.2 102.4 917 103.3C917.8 104.2 918.9 105 920.3 105.7C921.7 106.4 923.2 107.1 924.9 107.7C926.6 108.3 928.4 109 930.2 109.7C932 110.4 933.8 111.2 935.5 112.1C937.2 113 938.8 114.1 940.1 115.4C941.5 116.7 942.5 118.2 943.4 119.9C943.9 121.6 944.3 123.7 944.3 126Z" fill="white"/>
</g>
<defs>
<clipPath id="clip0_16_124">
<rect width="949" height="179" fill="white"/>
</clipPath>
</defs>
</svg>
