<svg width="20" height="20" viewBox="0 0 20 20" fill="none" xmlns="http://www.w3.org/2000/svg">
<g clip-path="url(#clip0_112_16)">
<path d="M4 8.66667C5.55556 11.7778 8.22223 14.3333 11.3333 16L13.7777 13.5556C14.1111 13.2223 14.5556 13.1112 14.8889 13.3333C16.1111 13.7777 17.4444 14 18.8889 14C19.5556 14 20 14.4444 20 15.1111V18.8889C20 19.5556 19.5556 20 18.8889 20C8.44444 20 0 11.5556 0 1.11111C0 0.444444 0.444444 0 1.11111 0H5C5.66667 0 6.11111 0.444444 6.11111 1.11111C6.11111 2.44444 6.33333 3.77777 6.77777 5.11111C6.88889 5.44444 6.77777 5.88889 6.55556 6.22223L4 8.66667Z" fill="white"/>
</g>
<defs>
<clipPath id="clip0_112_16">
<rect width="20" height="20" fill="white"/>
</clipPath>
</defs>
</svg>
