<svg xmlns="http://www.w3.org/2000/svg" width="30" height="30" viewBox="0 0 40 40" fill="none">
    <path d="M20 9.53674e-07C31.0457 9.53674e-07 40 8.95431 40 20C40 31.0457 31.0457 40 20 40C8.9543 40 0 31.0457 0 20C0 8.95431 8.9543 9.53674e-07 20 9.53674e-07Z" fill="#7F4DA0"></path>
    <path d="M25.3284 17.4653C25.2311 16.6751 24.9883 16.0546 24.5569 15.5049C23.9968 14.7972 23.281 14.3734 22.2213 14.122C21.5306 13.9545 21.2516 13.9737 21.0018 14.2018C20.7692 14.4156 20.7237 14.8441 20.9015 15.1216C21.0266 15.3231 21.1708 15.3952 21.572 15.474C22.1063 15.5723 22.4755 15.6998 22.8114 15.8919C23.5242 16.3035 23.8562 16.9476 23.8917 17.9904C23.9083 18.48 23.9506 18.6305 24.1216 18.8042C24.4386 19.1216 25.0027 19.0599 25.242 18.68C25.3298 18.5369 25.3432 18.4745 25.3524 18.1421C25.3586 17.9362 25.3497 17.6299 25.3284 17.4653V17.4653Z" fill="white"></path>
    <path d="M28.1205 18.3563C27.9797 15.9352 27.0327 13.9873 25.3379 12.6168C24.383 11.8467 23.2288 11.3171 21.9636 11.0596C21.5001 10.9675 20.6468 10.8929 20.5004 10.9356C20.3623 10.9751 20.1669 11.1247 20.0798 11.2599C19.9877 11.4066 19.9669 11.7341 20.0455 11.9236C20.1723 12.2403 20.4082 12.3521 21.0688 12.4099C22.0872 12.499 23.1377 12.8568 23.9313 13.3865C24.8374 13.9897 25.5577 14.8146 26.0237 15.7839C26.4263 16.6168 26.6739 17.817 26.6671 18.8919C26.6648 19.2806 26.7248 19.5001 26.8811 19.6606C27.1171 19.9074 27.4611 19.9614 27.7646 19.7975C28.1011 19.6205 28.1798 19.31 28.1205 18.3563V18.3563Z" fill="white"></path>
    <path d="M31.2102 27.6803C31.1629 27.5419 31.0523 27.3284 30.9734 27.2059C30.476 26.4548 27.8038 24.3635 26.4696 23.6796C25.7078 23.2883 25.1433 23.1578 24.7249 23.2803C24.2749 23.4069 24.0381 23.6163 23.2842 24.5533C22.9803 24.9288 22.6684 25.2807 22.5855 25.336C22.3802 25.4783 21.9776 25.593 21.6934 25.593C21.0342 25.589 19.8382 25.1621 18.9185 24.6007C18.2041 24.1659 17.2884 23.3871 16.5857 22.6162C15.7568 21.7109 15.1924 20.9124 14.7463 20.0111C14.17 18.8528 14.024 18.1451 14.2647 17.6272C14.3239 17.4968 14.4029 17.3585 14.4384 17.3149C14.4739 17.2754 14.845 16.971 15.2554 16.6389C16.0607 15.9985 16.191 15.8523 16.341 15.4135C16.5304 14.856 16.4791 14.2868 16.187 13.7136C15.962 13.2787 15.3739 12.3299 14.9476 11.7172C14.3831 10.9108 12.9779 9.18717 12.6976 8.95387C12.1924 8.54277 11.5451 8.47157 10.8306 8.74835C10.0767 9.0409 8.66358 10.1794 8.05964 10.974C7.51492 11.6935 7.30578 12.2034 7.27417 12.8755C7.24656 13.4289 7.29391 13.6582 7.58601 14.3659C9.87146 19.9162 13.2818 24.3477 17.9672 27.8661C20.4145 29.7043 22.9526 31.1038 25.5854 32.0605C27.1209 32.6179 27.7879 32.6455 28.5734 32.187C28.905 31.9893 29.726 31.1473 30.1839 30.5345C30.9418 29.5146 31.2221 29.0442 31.301 28.6686C31.3563 28.4116 31.3128 27.965 31.2102 27.6803V27.6803Z" fill="white"></path>
    <path d="M30.9629 18.9124C30.9123 17.5429 30.6817 16.4195 30.2009 15.1671C29.7262 13.9351 29.2458 13.1312 28.3385 12.0438C27.4807 11.0243 26.8144 10.4422 25.7577 9.79421C24.2835 8.89138 22.4893 8.29392 20.4786 8.04266C19.7929 7.95484 19.6378 7.96111 19.4275 8.10148C19.0198 8.36738 19.0252 9.03061 19.4342 9.29253C19.5696 9.37585 19.6897 9.4062 20.2382 9.47799C21.0801 9.59135 21.6215 9.69818 22.264 9.87346C24.7832 10.5621 26.7204 11.9697 28.0156 14.0593C29.0994 15.8009 29.5493 17.5427 29.4854 19.7673C29.4632 20.5193 29.4794 20.6517 29.5943 20.8324C29.8145 21.1692 30.3951 21.2358 30.6929 20.9563C30.8782 20.786 30.9132 20.6581 30.9497 20.0145C30.9672 19.6787 30.9709 19.183 30.9629 18.9124V18.9124Z" fill="white"></path>
</svg>