<svg xmlns="http://www.w3.org/2000/svg" width="30" height="30" viewBox="0 0 40 40" fill="none">
        <path d="M20 40C31.0457 40 40 31.0457 40 20C40 8.9543 31.0457 0 20 0C8.9543 0 0 8.9543 0 20C0 31.0457 8.9543 40 20 40Z" fill="#25D366"></path>
        <path fill-rule="evenodd" clip-rule="evenodd" d="M20.6592 31.1271H20.6543C18.6639 31.1264 16.7082 30.627 14.9711 29.6795L8.66666 31.3333L10.3538 25.1707C9.3131 23.3671 8.76547 21.3212 8.76636 19.2252C8.76897 12.6681 14.104 7.33331 20.6591 7.33331C23.8405 7.33469 26.8265 8.5732 29.0718 10.8212C31.3172 13.069 32.553 16.0569 32.5518 19.2346C32.5491 25.7902 27.2162 31.1244 20.6592 31.1271ZM15.2632 27.5265L15.6242 27.7408C17.1418 28.6414 18.8815 29.1179 20.6552 29.1186H20.6592C26.1074 29.1186 30.5416 24.6843 30.5438 19.2339C30.5448 16.5926 29.5176 14.1092 27.6514 12.2408C25.7851 10.3724 23.3033 9.34292 20.6631 9.342C15.2108 9.342 10.7765 13.7759 10.7743 19.2259C10.7735 21.0936 11.2961 22.9126 12.2856 24.4863L12.5206 24.8603L11.5221 28.5079L15.2632 27.5265ZM26.2437 21.795C26.4509 21.8952 26.5909 21.9628 26.6506 22.0626C26.7249 22.1865 26.7249 22.7815 26.4774 23.4757C26.2297 24.1698 25.0425 24.8033 24.4716 24.8886C23.9596 24.9651 23.3118 24.9971 22.5999 24.7708C22.1683 24.6339 21.6149 24.4511 20.9059 24.1449C18.1201 22.942 16.2375 20.242 15.8817 19.7317C15.8568 19.6959 15.8393 19.6709 15.8296 19.6579L15.8272 19.6547C15.67 19.4449 14.6163 18.039 14.6163 16.584C14.6163 15.2152 15.2886 14.4977 15.5981 14.1675C15.6193 14.1449 15.6388 14.1241 15.6563 14.105C15.9286 13.8075 16.2506 13.7331 16.4487 13.7331C16.6468 13.7331 16.8451 13.7349 17.0182 13.7436C17.0396 13.7447 17.0618 13.7446 17.0848 13.7444C17.2579 13.7434 17.4738 13.7422 17.6868 14.2537C17.7687 14.4506 17.8886 14.7425 18.0151 15.0503C18.2708 15.6728 18.5533 16.3606 18.603 16.4602C18.6773 16.6089 18.7268 16.7824 18.6278 16.9808C18.6129 17.0105 18.5991 17.0386 18.586 17.0654C18.5116 17.2173 18.4569 17.329 18.3306 17.4765C18.281 17.5344 18.2297 17.5969 18.1783 17.6594C18.0761 17.7839 17.9739 17.9084 17.8849 17.9971C17.7361 18.1453 17.5813 18.306 17.7546 18.6035C17.9279 18.901 18.5243 19.8741 19.4077 20.6621C20.3573 21.5091 21.1826 21.8671 21.601 22.0485C21.6827 22.084 21.7488 22.1127 21.7974 22.137C22.0944 22.2857 22.2678 22.2608 22.4411 22.0626C22.6145 21.8643 23.184 21.1949 23.382 20.8974C23.5801 20.6 23.7783 20.6496 24.0506 20.7487C24.323 20.848 25.784 21.5667 26.0812 21.7155C26.1392 21.7445 26.1934 21.7707 26.2437 21.795Z" fill="#FDFDFD"></path>
</svg>